<?xml version="1.0" encoding="UTF-8" standalone="no"?>
<!-- Created with Inkscape (http://www.inkscape.org/) -->

<svg
   xmlns:dc="http://purl.org/dc/elements/1.1/"
   xmlns:cc="http://creativecommons.org/ns#"
   xmlns:rdf="http://www.w3.org/1999/02/22-rdf-syntax-ns#"
   xmlns:svg="http://www.w3.org/2000/svg"
   xmlns="http://www.w3.org/2000/svg"
   version="1.1"
   width="899.40002"
   height="339.14999"
   id="svg2985"
   xml:space="preserve"><metadata
     id="metadata2991"><rdf:RDF><cc:Work
         rdf:about=""><dc:format>image/svg+xml</dc:format><dc:type
           rdf:resource="http://purl.org/dc/dcmitype/StillImage" /><dc:title></dc:title></cc:Work></rdf:RDF></metadata><defs
     id="defs2989"><clipPath
       id="clipPath3027"><path
         d="m 434.73,190.52 c -6.01,0 -10.87,-4.86 -10.87,-10.87 0,-6 4.86,-10.87 10.87,-10.87 6,0 10.87,4.87 10.87,10.87 0,6.01 -4.87,10.87 -10.87,10.87 z"
         id="path3029" /></clipPath><clipPath
       id="clipPath3055"><path
         d="m 380.2,87.416 c -6,0 -10.87,-4.867 -10.87,-10.871 0,-6.004 4.87,-10.871 10.87,-10.871 6,0 10.87,4.867 10.87,10.871 0,6.004 -4.87,10.871 -10.87,10.871 z"
         id="path3057" /></clipPath><clipPath
       id="clipPath3075"><path
         d="m 308.58,49.533 c -6,0 -10.87,-4.866 -10.87,-10.871 0,-6.004 4.87,-10.87 10.87,-10.87 6.01,0 10.87,4.866 10.87,10.87 0,6.005 -4.86,10.871 -10.87,10.871 z"
         id="path3077" /></clipPath><clipPath
       id="clipPath3095"><path
         d="m 20.317,126.58 c -6.004,0 -10.8709,-4.87 -10.8709,-10.87 0,-6.01 4.8669,-10.87 10.8709,-10.87 6.004,0 10.871,4.86 10.871,10.87 0,6 -4.867,10.87 -10.871,10.87 z"
         id="path3097" /></clipPath><radialGradient
       cx="0"
       cy="0"
       r="1"
       fx="0"
       fy="0"
       id="radialGradient3107"
       gradientUnits="userSpaceOnUse"
       gradientTransform="matrix(57.607,0,0,23.794,612.26,72.988)"
       spreadMethod="pad"><stop
         id="stop3109"
         style="stop-color:#ff8f8f;stop-opacity:1"
         offset="0" /><stop
         id="stop3111"
         style="stop-color:#ffe9e9;stop-opacity:1"
         offset="1" /></radialGradient><radialGradient
       cx="0"
       cy="0"
       r="1"
       fx="0"
       fy="0"
       id="radialGradient3117"
       gradientUnits="userSpaceOnUse"
       gradientTransform="matrix(100.81,0,0,33.186,615.08,184.45)"
       spreadMethod="pad"><stop
         id="stop3119"
         style="stop-color:#ccccff;stop-opacity:1"
         offset="0" /><stop
         id="stop3121"
         style="stop-color:#f5f5ff;stop-opacity:1"
         offset="1" /></radialGradient><clipPath
       id="clipPath3143"><path
         d="m 656.52,60.088 c 6,0 10.87,4.866 10.87,10.871 0,6.004 -4.87,10.87 -10.87,10.87 -6,0 -10.87,-4.866 -10.87,-10.87 0,-6.005 4.87,-10.871 10.87,-10.871 z"
         id="path3145" /></clipPath><clipPath
       id="clipPath3157"><path
         d="m 571.34,56.773 c 8.33,0 15.08,6.752 15.08,15.084 0,8.332 -6.75,15.084 -15.08,15.084 -8.33,0 -15.09,-6.752 -15.09,-15.084 0,-8.332 6.76,-15.084 15.09,-15.084 z"
         id="path3159" /></clipPath><clipPath
       id="clipPath3171"><path
         d="m 529.16,173.06 c 6.01,0 10.87,4.86 10.87,10.87 0,6 -4.86,10.87 -10.87,10.87 -6,0 -10.87,-4.87 -10.87,-10.87 0,-6.01 4.87,-10.87 10.87,-10.87 z"
         id="path3173" /></clipPath><clipPath
       id="clipPath3183"><path
         d="m 615.58,173.41 c 6,0 10.87,4.87 10.87,10.88 0,6 -4.87,10.87 -10.87,10.87 -6.01,0 -10.87,-4.87 -10.87,-10.87 0,-6.01 4.86,-10.88 10.87,-10.88 z"
         id="path3185" /></clipPath><clipPath
       id="clipPath3195"><path
         d="m 698.65,169.94 c 8.19,0 14.83,6.64 14.83,14.83 0,8.2 -6.64,14.84 -14.83,14.84 -8.2,0 -14.84,-6.64 -14.84,-14.84 0,-8.19 6.64,-14.83 14.84,-14.83 z"
         id="path3197" /></clipPath><clipPath
       id="clipPath3207"><path
         d="m 696.74,255.35 c -6.01,0 -10.88,-4.86 -10.88,-10.87 0,-6 4.87,-10.87 10.88,-10.87 6,0 10.87,4.87 10.87,10.87 0,6.01 -4.87,10.87 -10.87,10.87 z"
         id="path3209" /></clipPath><clipPath
       id="clipPath3223"><path
         d="m 633.77,255.64 c -6,0 -10.87,-4.87 -10.87,-10.87 0,-6.01 4.87,-10.87 10.87,-10.87 6.01,0 10.87,4.86 10.87,10.87 0,6 -4.86,10.87 -10.87,10.87 z"
         id="path3225" /></clipPath><clipPath
       id="clipPath3243"><path
         d="m 692.67,36.663 c -6,0 -10.87,-4.866 -10.87,-10.871 0,-6.004 4.87,-10.87 10.87,-10.87 6.01,0 10.87,4.866 10.87,10.87 0,6.005 -4.86,10.871 -10.87,10.871 z"
         id="path3245" /></clipPath><clipPath
       id="clipPath3259"><path
         d="m 629.71,36.949 c -6,0 -10.87,-4.866 -10.87,-10.871 0,-6.004 4.87,-10.87 10.87,-10.87 6.01,0 10.87,4.866 10.87,10.87 0,6.005 -4.86,10.871 -10.87,10.871 z"
         id="path3261" /></clipPath></defs><g
     transform="matrix(1.25,0,0,-1.25,0,339.15)"
     id="g2993"><g
   transform="matrix(498.97824,0,0,457.50565,-5.498024,-93.141708)"
   id="g2995" /><path
   d="m 434.36,180.38 -121.53,8.54"
   id="path2999"
   style="fill:none;stroke:#242424;stroke-width:3;stroke-linecap:butt;stroke-linejoin:round;stroke-miterlimit:10;stroke-opacity:1;stroke-dasharray:none" /><path
   d="M 379.87,78.687 311.6,186.95"
   id="path3001"
   style="fill:none;stroke:#242424;stroke-width:3;stroke-linecap:butt;stroke-linejoin:round;stroke-miterlimit:10;stroke-opacity:1;stroke-dasharray:none" /><path
   d="M 313.28,32.709 233.35,140.41"
   id="path3003"
   style="fill:none;stroke:#242424;stroke-width:3;stroke-linecap:butt;stroke-linejoin:round;stroke-miterlimit:10;stroke-opacity:1;stroke-dasharray:none" /><path
   d="M 305.47,187.91 232.66,143.68"
   id="path3005"
   style="fill:none;stroke:#242424;stroke-width:3;stroke-linecap:butt;stroke-linejoin:round;stroke-miterlimit:10;stroke-opacity:1;stroke-dasharray:none" /><path
   d="M 374.14,75.722 308.86,38.384"
   id="path3007"
   style="fill:none;stroke:#242424;stroke-width:3;stroke-linecap:butt;stroke-linejoin:round;stroke-miterlimit:10;stroke-opacity:1;stroke-dasharray:none" /><path
   d="M 431.57,176.38 378.45,78.283"
   id="path3011"
   style="fill:none;stroke:#242424;stroke-width:3;stroke-linecap:butt;stroke-linejoin:round;stroke-miterlimit:10;stroke-opacity:1;stroke-dasharray:none" /><g
   id="g3015"><path
     d="M 434.67,178.82 308.5,37.712"
     id="path3017"
     style="fill:none;stroke:#9c928e;stroke-width:3;stroke-linecap:round;stroke-linejoin:round;stroke-miterlimit:10;stroke-opacity:1;stroke-dasharray:0, 6;stroke-dashoffset:0" /></g><path
   d="m 434.73,190.52 c -6.01,0 -10.87,-4.86 -10.87,-10.87 0,-6 4.86,-10.87 10.87,-10.87 6,0 10.87,4.87 10.87,10.87 0,6.01 -4.87,10.87 -10.87,10.87 z"
   id="path3021"
   style="fill:#ff0000;fill-opacity:1;fill-rule:evenodd;stroke:none" /><g
   id="g3023"><g
     clip-path="url(#clipPath3027)"
     id="g3025"><path
       d="m 434.73,190.52 c -6.01,0 -10.87,-4.86 -10.87,-10.87 0,-6 4.86,-10.87 10.87,-10.87 6,0 10.87,4.87 10.87,10.87 0,6.01 -4.87,10.87 -10.87,10.87 z"
       id="path3031"
       style="fill:none;stroke:#000000;stroke-width:1.5;stroke-linecap:round;stroke-linejoin:round;stroke-miterlimit:10;stroke-opacity:1;stroke-dasharray:none" /></g></g><text
   x="430.89999"
   y="-176.19"
   transform="scale(1,-1)"
   id="text3033"><tspan
     x="430.89999"
     y="-176.19"
     id="tspan3035"
     style="font-size:9.96000004px;font-variant:normal;font-weight:900;writing-mode:lr-tb;fill:#ffffff;fill-opacity:1;fill-rule:nonzero;stroke:none;font-family:Arial Black;-inkscape-font-specification:Arial Heavy">C</tspan></text>


<path
   d="M 225.11,141.85 24.378,115.94"
   id="path3043"
   style="fill:none;stroke:#242424;stroke-width:3;stroke-linecap:butt;stroke-linejoin:round;stroke-miterlimit:10;stroke-opacity:1;stroke-dasharray:none" /><g
   id="g3045"><path
     d="M 20.072,115.87 379.19,77.138"
     id="path3047"
     style="fill:none;stroke:#9c928e;stroke-width:3;stroke-linecap:round;stroke-linejoin:round;stroke-miterlimit:10;stroke-opacity:1;stroke-dasharray:0, 6;stroke-dashoffset:0" /></g><path
   d="m 380.2,87.416 c -6,0 -10.87,-4.867 -10.87,-10.871 0,-6.004 4.87,-10.871 10.87,-10.871 6,0 10.87,4.867 10.87,10.871 0,6.004 -4.87,10.871 -10.87,10.871 z"
   id="path3049"
   style="fill:#0000ff;fill-opacity:1;fill-rule:evenodd;stroke:none" /><g
   id="g3051"><g
     clip-path="url(#clipPath3055)"
     id="g3053"><path
       d="m 380.2,87.416 c -6,0 -10.87,-4.867 -10.87,-10.871 0,-6.004 4.87,-10.871 10.87,-10.871 6,0 10.87,4.867 10.87,10.871 0,6.004 -4.87,10.871 -10.87,10.871 z"
       id="path3059"
       style="fill:none;stroke:#000000;stroke-width:1.5;stroke-linecap:round;stroke-linejoin:round;stroke-miterlimit:10;stroke-opacity:1;stroke-dasharray:none" /></g></g><text
   x="376.26999"
   y="-73.063995"
   transform="scale(1,-1)"
   id="text3061"><tspan
     x="376.26999"
     y="-73.063995"
     id="tspan3063"
     style="font-size:9.96000004px;font-variant:normal;font-weight:900;writing-mode:lr-tb;fill:#ffffff;fill-opacity:1;fill-rule:nonzero;stroke:none;font-family:Arial Black;-inkscape-font-specification:Arial Heavy">B</tspan></text>


<path
   d="m 308.82,200.93 c -6.01,0 -10.87,-4.86 -10.87,-10.87 0,-6 4.86,-10.87 10.87,-10.87 6,0 10.87,4.87 10.87,10.87 0,6.01 -4.87,10.87 -10.87,10.87 z"
   id="path3067"
   style="fill:#333333;fill-opacity:1;fill-rule:evenodd;stroke:none" /><path
   d="m 308.58,49.533 c -6,0 -10.87,-4.866 -10.87,-10.871 0,-6.004 4.87,-10.87 10.87,-10.87 6.01,0 10.87,4.866 10.87,10.87 0,6.005 -4.86,10.871 -10.87,10.871 z"
   id="path3069"
   style="fill:#ff0000;fill-opacity:1;fill-rule:evenodd;stroke:none" /><g
   id="g3071"><g
     clip-path="url(#clipPath3075)"
     id="g3073"><path
       d="m 308.58,49.533 c -6,0 -10.87,-4.866 -10.87,-10.871 0,-6.004 4.87,-10.87 10.87,-10.87 6.01,0 10.87,4.866 10.87,10.87 0,6.005 -4.86,10.871 -10.87,10.871 z"
       id="path3079"
       style="fill:none;stroke:#000000;stroke-width:1.5;stroke-linecap:round;stroke-linejoin:round;stroke-miterlimit:10;stroke-opacity:1;stroke-dasharray:none" /></g></g><text
   x="304.63"
   y="-35.119999"
   transform="scale(1,-1)"
   id="text3081"><tspan
     x="304.63"
     y="-35.119999"
     id="tspan3083"
     style="font-size:9.96000004px;font-variant:normal;font-weight:900;writing-mode:lr-tb;fill:#ffffff;fill-opacity:1;fill-rule:nonzero;stroke:none;font-family:Arial Black;-inkscape-font-specification:Arial Heavy">D</tspan></text>


<path
   d="m 230.5,154.34 c -6.01,0 -10.87,-4.87 -10.87,-10.87 0,-6.01 4.86,-10.88 10.87,-10.88 6,0 10.87,4.87 10.87,10.88 0,6 -4.87,10.87 -10.87,10.87 z"
   id="path3087"
   style="fill:#333333;fill-opacity:1;fill-rule:evenodd;stroke:none" /><path
   d="m 20.317,126.58 c -6.004,0 -10.8709,-4.87 -10.8709,-10.87 0,-6.01 4.8669,-10.87 10.8709,-10.87 6.004,0 10.871,4.86 10.871,10.87 0,6 -4.867,10.87 -10.871,10.87 z"
   id="path3089"
   style="fill:#0000ff;fill-opacity:1;fill-rule:evenodd;stroke:none" /><g
   id="g3091"><g
     clip-path="url(#clipPath3095)"
     id="g3093"><path
       d="m 20.317,126.58 c -6.004,0 -10.8709,-4.87 -10.8709,-10.87 0,-6.01 4.8669,-10.87 10.8709,-10.87 6.004,0 10.871,4.86 10.871,10.87 0,6 -4.867,10.87 -10.871,10.87 z"
       id="path3099"
       style="fill:none;stroke:#000000;stroke-width:1.5;stroke-linecap:round;stroke-linejoin:round;stroke-miterlimit:10;stroke-opacity:1;stroke-dasharray:none" /></g></g><text
   x="16.32"
   y="-112.18"
   transform="scale(1,-1)"
   id="text3101"><tspan
     x="16.32"
     y="-112.18"
     id="tspan3103"
     style="font-size:9.96000004px;font-variant:normal;font-weight:900;writing-mode:lr-tb;fill:#ffffff;fill-opacity:1;fill-rule:nonzero;stroke:none;font-family:Arial Black;-inkscape-font-specification:Arial Heavy">A</tspan></text>













</g></svg>