<?xml version="1.0" encoding="UTF-8" standalone="no"?>
<!-- Created with Inkscape (http://www.inkscape.org/) -->

<svg
   xmlns:dc="http://purl.org/dc/elements/1.1/"
   xmlns:cc="http://creativecommons.org/ns#"
   xmlns:rdf="http://www.w3.org/1999/02/22-rdf-syntax-ns#"
   xmlns:svg="http://www.w3.org/2000/svg"
   xmlns="http://www.w3.org/2000/svg"
   xmlns:xlink="http://www.w3.org/1999/xlink"
   xmlns:sodipodi="http://sodipodi.sourceforge.net/DTD/sodipodi-0.dtd"
   xmlns:inkscape="http://www.inkscape.org/namespaces/inkscape"
   id="svg2985"
   version="1.1"
   inkscape:version="0.48.1 "
   width="899.4"
   height="339.15"
   xml:space="preserve"
   sodipodi:docname="translation.svg"><metadata
     id="metadata2991"><rdf:RDF><cc:Work
         rdf:about=""><dc:format>image/svg+xml</dc:format><dc:type
           rdf:resource="http://purl.org/dc/dcmitype/StillImage" /><dc:title /></cc:Work></rdf:RDF></metadata><defs
     id="defs2989"><clipPath
       clipPathUnits="userSpaceOnUse"
       id="clipPath3027"><path
         d="m 434.73,190.52 c -6.01,0 -10.87,-4.86 -10.87,-10.87 0,-6 4.86,-10.87 10.87,-10.87 6,0 10.87,4.87 10.87,10.87 0,6.01 -4.87,10.87 -10.87,10.87 z"
         clip-rule="evenodd"
         id="path3029" /></clipPath><clipPath
       clipPathUnits="userSpaceOnUse"
       id="clipPath3055"><path
         d="m 380.2,87.416 c -6,0 -10.87,-4.867 -10.87,-10.871 0,-6.004 4.87,-10.871 10.87,-10.871 6,0 10.87,4.867 10.87,10.871 0,6.004 -4.87,10.871 -10.87,10.871 z"
         clip-rule="evenodd"
         id="path3057" /></clipPath><clipPath
       clipPathUnits="userSpaceOnUse"
       id="clipPath3075"><path
         d="m 308.58,49.533 c -6,0 -10.87,-4.866 -10.87,-10.871 0,-6.004 4.87,-10.87 10.87,-10.87 6.01,0 10.87,4.866 10.87,10.87 0,6.005 -4.86,10.871 -10.87,10.871 z"
         clip-rule="evenodd"
         id="path3077" /></clipPath><clipPath
       clipPathUnits="userSpaceOnUse"
       id="clipPath3095"><path
         d="m 20.317,126.58 c -6.004,0 -10.8709,-4.87 -10.8709,-10.87 0,-6.01 4.8669,-10.87 10.8709,-10.87 6.004,0 10.871,4.86 10.871,10.87 0,6 -4.867,10.87 -10.871,10.87 z"
         clip-rule="evenodd"
         id="path3097" /></clipPath><radialGradient
       fx="0"
       fy="0"
       cx="0"
       cy="0"
       r="1"
       gradientUnits="userSpaceOnUse"
       gradientTransform="matrix(57.607,0,0,23.794,612.26,72.988)"
       spreadMethod="pad"
       id="radialGradient3107"><stop
         style="stop-opacity:1;stop-color:#ff8f8f"
         offset="0"
         id="stop3109" /><stop
         style="stop-opacity:1;stop-color:#ffe9e9"
         offset="1"
         id="stop3111" /></radialGradient><radialGradient
       fx="0"
       fy="0"
       cx="0"
       cy="0"
       r="1"
       gradientUnits="userSpaceOnUse"
       gradientTransform="matrix(100.81,0,0,33.186,615.08,184.45)"
       spreadMethod="pad"
       id="radialGradient3117"><stop
         style="stop-opacity:1;stop-color:#ccccff"
         offset="0"
         id="stop3119" /><stop
         style="stop-opacity:1;stop-color:#f5f5ff"
         offset="1"
         id="stop3121" /></radialGradient><clipPath
       clipPathUnits="userSpaceOnUse"
       id="clipPath3143"><path
         d="m 656.52,60.088 c 6,0 10.87,4.866 10.87,10.871 0,6.004 -4.87,10.87 -10.87,10.87 -6,0 -10.87,-4.866 -10.87,-10.87 0,-6.005 4.87,-10.871 10.87,-10.871 z"
         clip-rule="evenodd"
         id="path3145" /></clipPath><clipPath
       clipPathUnits="userSpaceOnUse"
       id="clipPath3157"><path
         d="m 571.34,56.773 c 8.33,0 15.08,6.752 15.08,15.084 0,8.332 -6.75,15.084 -15.08,15.084 -8.33,0 -15.09,-6.752 -15.09,-15.084 0,-8.332 6.76,-15.084 15.09,-15.084 z"
         clip-rule="evenodd"
         id="path3159" /></clipPath><clipPath
       clipPathUnits="userSpaceOnUse"
       id="clipPath3171"><path
         d="m 529.16,173.06 c 6.01,0 10.87,4.86 10.87,10.87 0,6 -4.86,10.87 -10.87,10.87 -6,0 -10.87,-4.87 -10.87,-10.87 0,-6.01 4.87,-10.87 10.87,-10.87 z"
         clip-rule="evenodd"
         id="path3173" /></clipPath><clipPath
       clipPathUnits="userSpaceOnUse"
       id="clipPath3183"><path
         d="m 615.58,173.41 c 6,0 10.87,4.87 10.87,10.88 0,6 -4.87,10.87 -10.87,10.87 -6.01,0 -10.87,-4.87 -10.87,-10.87 0,-6.01 4.86,-10.88 10.87,-10.88 z"
         clip-rule="evenodd"
         id="path3185" /></clipPath><clipPath
       clipPathUnits="userSpaceOnUse"
       id="clipPath3195"><path
         d="m 698.65,169.94 c 8.19,0 14.83,6.64 14.83,14.83 0,8.2 -6.64,14.84 -14.83,14.84 -8.2,0 -14.84,-6.64 -14.84,-14.84 0,-8.19 6.64,-14.83 14.84,-14.83 z"
         clip-rule="evenodd"
         id="path3197" /></clipPath><clipPath
       clipPathUnits="userSpaceOnUse"
       id="clipPath3207"><path
         d="m 696.74,255.35 c -6.01,0 -10.88,-4.86 -10.88,-10.87 0,-6 4.87,-10.87 10.88,-10.87 6,0 10.87,4.87 10.87,10.87 0,6.01 -4.87,10.87 -10.87,10.87 z"
         clip-rule="evenodd"
         id="path3209" /></clipPath><clipPath
       clipPathUnits="userSpaceOnUse"
       id="clipPath3223"><path
         d="m 633.77,255.64 c -6,0 -10.87,-4.87 -10.87,-10.87 0,-6.01 4.87,-10.87 10.87,-10.87 6.01,0 10.87,4.86 10.87,10.87 0,6 -4.86,10.87 -10.87,10.87 z"
         clip-rule="evenodd"
         id="path3225" /></clipPath><clipPath
       clipPathUnits="userSpaceOnUse"
       id="clipPath3243"><path
         d="m 692.67,36.663 c -6,0 -10.87,-4.866 -10.87,-10.871 0,-6.004 4.87,-10.87 10.87,-10.87 6.01,0 10.87,4.866 10.87,10.87 0,6.005 -4.86,10.871 -10.87,10.871 z"
         clip-rule="evenodd"
         id="path3245" /></clipPath><clipPath
       clipPathUnits="userSpaceOnUse"
       id="clipPath3259"><path
         d="m 629.71,36.949 c -6,0 -10.87,-4.866 -10.87,-10.871 0,-6.004 4.87,-10.87 10.87,-10.87 6.01,0 10.87,4.866 10.87,10.87 0,6.005 -4.86,10.871 -10.87,10.871 z"
         clip-rule="evenodd"
         id="path3261" /></clipPath></defs><sodipodi:namedview
     bordercolor="#666666"
     borderopacity="1"
     objecttolerance="10"
     gridtolerance="10"
     guidetolerance="10"
     inkscape:pageopacity="0"
     inkscape:pageshadow="2"
     inkscape:window-width="999"
     inkscape:window-height="723"
     id="namedview2987"
     showgrid="false"
     inkscape:zoom="0.56704468"
     inkscape:cx="458.87286"
     inkscape:cy="224.68528"
     inkscape:window-x="0"
     inkscape:window-y="0"
     inkscape:window-maximized="0"
     inkscape:current-layer="g2993" /><g
     id="g2993"
     inkscape:groupmode="layer"
     inkscape:label="translation"
     transform="matrix(1.25,0,0,-1.25,0,339.15)"><g
   id="g2995"
   transform="matrix(498.97824,0,0,457.50565,-5.498024,-93.141708)"></g><path
   d="m 434.36,180.38 -121.53,8.54"
   style="fill:none;stroke:#ffcc00;stroke-opacity:1;stroke-width:3;stroke-linecap:butt;stroke-linejoin:round;stroke-miterlimit:10;stroke-dasharray:none"
   id="path2999" /><path
   d="M 379.87,78.687 311.6,186.95"
   style="fill:none;stroke:#0070c0;stroke-opacity:1;stroke-width:3;stroke-linecap:butt;stroke-linejoin:round;stroke-miterlimit:10;stroke-dasharray:none"
   id="path3001" /><path
   d="M 310.08,31.109 230.15,138.81"
   style="fill:none;stroke:#80379b;stroke-opacity:1;stroke-width:3;stroke-linecap:butt;stroke-linejoin:round;stroke-miterlimit:10;stroke-dasharray:none"
   id="path3003" /><path
   d="M 305.47,187.91 232.66,143.68"
   style="fill:none;stroke:#7ab5f0;stroke-opacity:1;stroke-width:3;stroke-linecap:butt;stroke-linejoin:round;stroke-miterlimit:10;stroke-dasharray:none"
   id="path3005" /><path
   d="M 374.14,75.722 308.86,38.384"
   style="fill:none;stroke:#ff6600;stroke-opacity:1;stroke-width:3;stroke-linecap:butt;stroke-linejoin:round;stroke-miterlimit:10;stroke-dasharray:none"
   id="path3007" /><path
   d="M 226.35,147.79 25.612,121.89"
   style="fill:none;stroke:#0070c0;stroke-opacity:1;stroke-width:3;stroke-linecap:butt;stroke-linejoin:round;stroke-miterlimit:10;stroke-dasharray:none"
   id="path3009" /><path
   d="M 431.57,176.38 378.45,78.283"
   style="fill:none;stroke:#ff6600;stroke-opacity:1;stroke-width:3;stroke-linecap:butt;stroke-linejoin:round;stroke-miterlimit:10;stroke-dasharray:none"
   id="path3011" /><path
   d="m 434.86,186.38 -121.54,8.54"
   style="fill:none;stroke:#7ab5f0;stroke-opacity:1;stroke-width:3;stroke-linecap:butt;stroke-linejoin:round;stroke-miterlimit:10;stroke-dasharray:none"
   id="path3013" /><g
   id="g3015"><path
     d="M 434.67,178.82 308.5,37.712"
     style="fill:none;stroke:#9c928e;stroke-opacity:1;stroke-width:3;stroke-linecap:round;stroke-linejoin:round;stroke-miterlimit:10;stroke-dasharray:0,6;stroke-dashoffset:0"
     id="path3017" /></g><path
   d="M 436.62,173.58 383.5,75.477"
   style="fill:none;stroke:#7ab5f0;stroke-opacity:1;stroke-width:3;stroke-linecap:butt;stroke-linejoin:round;stroke-miterlimit:10;stroke-dasharray:none"
   id="path3019" /><path
   d="m 434.73,190.52 c -6.01,0 -10.87,-4.86 -10.87,-10.87 0,-6 4.86,-10.87 10.87,-10.87 6,0 10.87,4.87 10.87,10.87 0,6.01 -4.87,10.87 -10.87,10.87 z"
   style="fill:#ff0000;fill-opacity:1;fill-rule:evenodd;stroke:none"
   id="path3021" /><g
   id="g3023"><g
     id="g3025"
     clip-path="url(#clipPath3027)"><path
       d="m 434.73,190.52 c -6.01,0 -10.87,-4.86 -10.87,-10.87 0,-6 4.86,-10.87 10.87,-10.87 6,0 10.87,4.87 10.87,10.87 0,6.01 -4.87,10.87 -10.87,10.87 z"
       style="fill:none;stroke:#000000;stroke-opacity:1;stroke-width:1.5;stroke-linecap:round;stroke-linejoin:round;stroke-miterlimit:10;stroke-dasharray:none"
       id="path3031" /></g></g><text
   transform="scale(1,-1)"
   id="text3033"
   x="430.89999"
   y="-176.19"><tspan
     style="font-size:9.96000004px;font-variant:normal;font-weight:900;writing-mode:lr-tb;fill:#ffffff;fill-opacity:1;fill-rule:nonzero;stroke:none;font-family:Arial Black;-inkscape-font-specification:Arial Heavy"
     x="430.89999"
     y="-176.19"
     id="tspan3035">C</tspan></text>

<path
   d="M 378.46,71.71 313.18,34.371"
   style="fill:none;stroke:#80379b;stroke-opacity:1;stroke-width:3;stroke-linecap:butt;stroke-linejoin:round;stroke-miterlimit:10;stroke-dasharray:none"
   id="path3037" /><path
   d="M 310.95,39.517 234.16,143.63"
   style="fill:none;stroke:#ffc000;stroke-opacity:1;stroke-width:3;stroke-linecap:butt;stroke-linejoin:round;stroke-miterlimit:10;stroke-dasharray:none"
   id="path3039" /><path
   d="M 309.2,183.64 236.39,139.41"
   style="fill:none;stroke:#ffc000;stroke-opacity:1;stroke-width:3;stroke-linecap:butt;stroke-linejoin:round;stroke-miterlimit:10;stroke-dasharray:none"
   id="path3041" /><path
   d="M 225.11,141.85 24.378,115.94"
   style="fill:none;stroke:#7ab5f0;stroke-opacity:1;stroke-width:3;stroke-linecap:butt;stroke-linejoin:round;stroke-miterlimit:10;stroke-dasharray:none"
   id="path3043" /><g
   id="g3045"><path
     d="M 20.072,115.87 379.19,77.138"
     style="fill:none;stroke:#9c928e;stroke-opacity:1;stroke-width:3;stroke-linecap:round;stroke-linejoin:round;stroke-miterlimit:10;stroke-dasharray:0,6;stroke-dashoffset:0"
     id="path3047" /></g><path
   d="m 380.2,87.416 c -6,0 -10.87,-4.867 -10.87,-10.871 0,-6.004 4.87,-10.871 10.87,-10.871 6,0 10.87,4.867 10.87,10.871 0,6.004 -4.87,10.871 -10.87,10.871 z"
   style="fill:#0000ff;fill-opacity:1;fill-rule:evenodd;stroke:none"
   id="path3049" /><g
   id="g3051"><g
     id="g3053"
     clip-path="url(#clipPath3055)"><path
       d="m 380.2,87.416 c -6,0 -10.87,-4.867 -10.87,-10.871 0,-6.004 4.87,-10.871 10.87,-10.871 6,0 10.87,4.867 10.87,10.871 0,6.004 -4.87,10.871 -10.87,10.871 z"
       style="fill:none;stroke:#000000;stroke-opacity:1;stroke-width:1.5;stroke-linecap:round;stroke-linejoin:round;stroke-miterlimit:10;stroke-dasharray:none"
       id="path3059" /></g></g><text
   transform="scale(1,-1)"
   id="text3061"
   x="376.26999"
   y="-73.063995"><tspan
     style="font-size:9.96000004px;font-variant:normal;font-weight:900;writing-mode:lr-tb;fill:#ffffff;fill-opacity:1;fill-rule:nonzero;stroke:none;font-family:Arial Black;-inkscape-font-specification:Arial Heavy"
     x="376.26999"
     y="-73.063995"
     id="tspan3063">B</tspan></text>

<path
   d="M 302.44,192.74 229.63,148.51"
   style="fill:none;stroke:#0070c0;stroke-opacity:1;stroke-width:3;stroke-linecap:butt;stroke-linejoin:round;stroke-miterlimit:10;stroke-dasharray:none"
   id="path3065" /><path
   d="m 308.82,200.93 c -6.01,0 -10.87,-4.86 -10.87,-10.87 0,-6 4.86,-10.87 10.87,-10.87 6,0 10.87,4.87 10.87,10.87 0,6.01 -4.87,10.87 -10.87,10.87 z"
   style="fill:#333333;fill-opacity:1;fill-rule:evenodd;stroke:none"
   id="path3067" /><path
   d="m 308.58,49.533 c -6,0 -10.87,-4.866 -10.87,-10.871 0,-6.004 4.87,-10.87 10.87,-10.87 6.01,0 10.87,4.866 10.87,10.87 0,6.005 -4.86,10.871 -10.87,10.871 z"
   style="fill:#ff0000;fill-opacity:1;fill-rule:evenodd;stroke:none"
   id="path3069" /><g
   id="g3071"><g
     id="g3073"
     clip-path="url(#clipPath3075)"><path
       d="m 308.58,49.533 c -6,0 -10.87,-4.866 -10.87,-10.871 0,-6.004 4.87,-10.87 10.87,-10.87 6.01,0 10.87,4.866 10.87,10.87 0,6.005 -4.86,10.871 -10.87,10.871 z"
       style="fill:none;stroke:#000000;stroke-opacity:1;stroke-width:1.5;stroke-linecap:round;stroke-linejoin:round;stroke-miterlimit:10;stroke-dasharray:none"
       id="path3079" /></g></g><text
   transform="scale(1,-1)"
   id="text3081"
   x="304.63"
   y="-35.119999"><tspan
     style="font-size:9.96000004px;font-variant:normal;font-weight:900;writing-mode:lr-tb;fill:#ffffff;fill-opacity:1;fill-rule:nonzero;stroke:none;font-family:Arial Black;-inkscape-font-specification:Arial Heavy"
     x="304.63"
     y="-35.119999"
     id="tspan3083">D</tspan></text>

<path
   d="M 225.56,136.46 24.827,110.55"
   style="fill:none;stroke:#80379b;stroke-opacity:1;stroke-width:3;stroke-linecap:butt;stroke-linejoin:round;stroke-miterlimit:10;stroke-dasharray:none"
   id="path3085" /><path
   d="m 230.5,154.34 c -6.01,0 -10.87,-4.87 -10.87,-10.87 0,-6.01 4.86,-10.88 10.87,-10.88 6,0 10.87,4.87 10.87,10.88 0,6 -4.87,10.87 -10.87,10.87 z"
   style="fill:#333333;fill-opacity:1;fill-rule:evenodd;stroke:none"
   id="path3087" /><path
   d="m 20.317,126.58 c -6.004,0 -10.8709,-4.87 -10.8709,-10.87 0,-6.01 4.8669,-10.87 10.8709,-10.87 6.004,0 10.871,4.86 10.871,10.87 0,6 -4.867,10.87 -10.871,10.87 z"
   style="fill:#0000ff;fill-opacity:1;fill-rule:evenodd;stroke:none"
   id="path3089" /><g
   id="g3091"><g
     id="g3093"
     clip-path="url(#clipPath3095)"><path
       d="m 20.317,126.58 c -6.004,0 -10.8709,-4.87 -10.8709,-10.87 0,-6.01 4.8669,-10.87 10.8709,-10.87 6.004,0 10.871,4.86 10.871,10.87 0,6 -4.867,10.87 -10.871,10.87 z"
       style="fill:none;stroke:#000000;stroke-opacity:1;stroke-width:1.5;stroke-linecap:round;stroke-linejoin:round;stroke-miterlimit:10;stroke-dasharray:none"
       id="path3099" /></g></g><text
   transform="scale(1,-1)"
   id="text3101"
   x="16.32"
   y="-112.18"><tspan
     style="font-size:9.96000004px;font-variant:normal;font-weight:900;writing-mode:lr-tb;fill:#ffffff;fill-opacity:1;fill-rule:nonzero;stroke:none;font-family:Arial Black;-inkscape-font-specification:Arial Heavy"
     x="16.32"
     y="-112.18"
     id="tspan3103">A</tspan></text>

<g
   id="g3105"><path
     d="m 612.26,49.194 c 31.82,0 57.61,10.652 57.61,23.794 0,13.142 -25.79,23.793 -57.61,23.793 -31.81,0 -57.6,-10.651 -57.6,-23.793 0,-13.142 25.79,-23.794 57.6,-23.794 z"
     style="fill:url(#radialGradient3107);fill-opacity:1;fill-rule:evenodd;stroke:none"
     id="path3113" /></g><g
   id="g3115"><path
     d="m 615.08,151.26 c 55.68,0 100.81,14.86 100.81,33.19 0,18.33 -45.13,33.18 -100.81,33.18 -55.68,0 -100.81,-14.85 -100.81,-33.18 0,-18.33 45.13,-33.19 100.81,-33.19 z"
     style="fill:url(#radialGradient3117);fill-opacity:1;fill-rule:evenodd;stroke:none"
     id="path3123" /></g><path
   d="M 528.49,182.62 569.86,71.974"
   style="fill:none;stroke:#262626;stroke-opacity:1;stroke-width:3;stroke-linecap:butt;stroke-linejoin:round;stroke-miterlimit:10;stroke-dasharray:none"
   id="path3125" /><path
   d="m 621.35,184.88 79.34,0.08"
   style="fill:none;stroke:#c0c0c0;stroke-opacity:1;stroke-width:3;stroke-linecap:butt;stroke-linejoin:round;stroke-miterlimit:10;stroke-dasharray:none"
   id="path3127" /><path
   d="m 688.16,195.26 c 0,8.12 -37.83,16.25 -75.66,16.25 -37.82,0 -75.65,-9.95 -75.65,-19.89"
   style="fill:none;stroke:#c0c0c0;stroke-opacity:1;stroke-width:3;stroke-linecap:butt;stroke-linejoin:round;stroke-miterlimit:10;stroke-dasharray:none"
   id="path3129" /><path
   d="M 529.62,183.75 657.59,70.747"
   style="fill:none;stroke:#c0c0c0;stroke-opacity:1;stroke-width:3;stroke-linecap:butt;stroke-linejoin:round;stroke-miterlimit:10;stroke-dasharray:none"
   id="path3131" /><path
   d="M 615.93,183.18 655.46,71.982"
   style="fill:none;stroke:#c0c0c0;stroke-opacity:1;stroke-width:3;stroke-linecap:butt;stroke-linejoin:round;stroke-miterlimit:10;stroke-dasharray:none"
   id="path3133" /><path
   d="M 703.36,184.64 654.83,71.645"
   style="fill:none;stroke:#262626;stroke-opacity:1;stroke-width:3;stroke-linecap:butt;stroke-linejoin:round;stroke-miterlimit:10;stroke-dasharray:none"
   id="path3135" /><path
   d="m 656.52,60.088 c 6,0 10.87,4.866 10.87,10.871 0,6.004 -4.87,10.87 -10.87,10.87 -6,0 -10.87,-4.866 -10.87,-10.87 0,-6.005 4.87,-10.871 10.87,-10.871 z"
   style="fill:#ffc000;fill-opacity:1;fill-rule:evenodd;stroke:none"
   id="path3137" /><g
   id="g3139"><g
     id="g3141"
     clip-path="url(#clipPath3143)"><path
       d="m 656.52,60.088 c 6,0 10.87,4.866 10.87,10.871 0,6.004 -4.87,10.87 -10.87,10.87 -6,0 -10.87,-4.866 -10.87,-10.87 0,-6.005 4.87,-10.871 10.87,-10.871 z"
       style="fill:none;stroke:#000000;stroke-opacity:1;stroke-width:1.5;stroke-linecap:round;stroke-linejoin:round;stroke-miterlimit:10;stroke-dasharray:none"
       id="path3147" /></g></g><path
   d="M 616.15,184.31 572.63,69.961"
   style="fill:none;stroke:#262626;stroke-opacity:1;stroke-width:3;stroke-linecap:butt;stroke-linejoin:round;stroke-miterlimit:10;stroke-dasharray:none"
   id="path3149" /><path
   d="m 571.34,56.773 c 8.33,0 15.08,6.752 15.08,15.084 0,8.332 -6.75,15.084 -15.08,15.084 -8.33,0 -15.09,-6.752 -15.09,-15.084 0,-8.332 6.76,-15.084 15.09,-15.084 z"
   style="fill:#ff6600;fill-opacity:1;fill-rule:evenodd;stroke:none"
   id="path3151" /><g
   id="g3153"><g
     id="g3155"
     clip-path="url(#clipPath3157)"><path
       d="m 571.34,56.773 c 8.33,0 15.08,6.752 15.08,15.084 0,8.332 -6.75,15.084 -15.08,15.084 -8.33,0 -15.09,-6.752 -15.09,-15.084 0,-8.332 6.76,-15.084 15.09,-15.084 z"
       style="fill:none;stroke:#000000;stroke-opacity:1;stroke-width:1.5;stroke-linecap:round;stroke-linejoin:round;stroke-miterlimit:10;stroke-dasharray:none"
       id="path3161" /></g></g><path
   d="M 531.66,184.96 611,185.04"
   style="fill:none;stroke:#c0c0c0;stroke-opacity:1;stroke-width:3;stroke-linecap:butt;stroke-linejoin:round;stroke-miterlimit:10;stroke-dasharray:none"
   id="path3163" /><path
   d="m 529.16,173.06 c 6.01,0 10.87,4.86 10.87,10.87 0,6 -4.86,10.87 -10.87,10.87 -6,0 -10.87,-4.87 -10.87,-10.87 0,-6.01 4.87,-10.87 10.87,-10.87 z"
   style="fill:#7ab5f0;fill-opacity:1;fill-rule:evenodd;stroke:none"
   id="path3165" /><g
   id="g3167"><g
     id="g3169"
     clip-path="url(#clipPath3171)"><path
       d="m 529.16,173.06 c 6.01,0 10.87,4.86 10.87,10.87 0,6 -4.86,10.87 -10.87,10.87 -6,0 -10.87,-4.87 -10.87,-10.87 0,-6.01 4.87,-10.87 10.87,-10.87 z"
       style="fill:none;stroke:#000000;stroke-opacity:1;stroke-width:1.5;stroke-linecap:round;stroke-linejoin:round;stroke-miterlimit:10;stroke-dasharray:none"
       id="path3175" /></g></g><path
   d="m 615.58,173.41 c 6,0 10.87,4.87 10.87,10.88 0,6 -4.87,10.87 -10.87,10.87 -6.01,0 -10.87,-4.87 -10.87,-10.87 0,-6.01 4.86,-10.88 10.87,-10.88 z"
   style="fill:#80379b;fill-opacity:1;fill-rule:evenodd;stroke:none"
   id="path3177" /><g
   id="g3179"><g
     id="g3181"
     clip-path="url(#clipPath3183)"><path
       d="m 615.58,173.41 c 6,0 10.87,4.87 10.87,10.88 0,6 -4.87,10.87 -10.87,10.87 -6.01,0 -10.87,-4.87 -10.87,-10.87 0,-6.01 4.86,-10.88 10.87,-10.88 z"
       style="fill:none;stroke:#000000;stroke-opacity:1;stroke-width:1.5;stroke-linecap:round;stroke-linejoin:round;stroke-miterlimit:10;stroke-dasharray:none"
       id="path3187" /></g></g><path
   d="m 698.65,169.94 c 8.19,0 14.83,6.64 14.83,14.83 0,8.2 -6.64,14.84 -14.83,14.84 -8.2,0 -14.84,-6.64 -14.84,-14.84 0,-8.19 6.64,-14.83 14.84,-14.83 z"
   style="fill:#0070c0;fill-opacity:1;fill-rule:evenodd;stroke:none"
   id="path3189" /><g
   id="g3191"><g
     id="g3193"
     clip-path="url(#clipPath3195)"><path
       d="m 698.65,169.94 c 8.19,0 14.83,6.64 14.83,14.83 0,8.2 -6.64,14.84 -14.83,14.84 -8.2,0 -14.84,-6.64 -14.84,-14.84 0,-8.19 6.64,-14.83 14.84,-14.83 z"
       style="fill:none;stroke:#000000;stroke-opacity:1;stroke-width:1.5;stroke-linecap:round;stroke-linejoin:round;stroke-miterlimit:10;stroke-dasharray:none"
       id="path3199" /></g></g><path
   d="m 696.74,255.35 c -6.01,0 -10.88,-4.86 -10.88,-10.87 0,-6 4.87,-10.87 10.88,-10.87 6,0 10.87,4.87 10.87,10.87 0,6.01 -4.87,10.87 -10.87,10.87 z"
   style="fill:#0000ff;fill-opacity:1;fill-rule:evenodd;stroke:none"
   id="path3201" /><g
   id="g3203"><g
     id="g3205"
     clip-path="url(#clipPath3207)"><path
       d="m 696.74,255.35 c -6.01,0 -10.88,-4.86 -10.88,-10.87 0,-6 4.87,-10.87 10.88,-10.87 6,0 10.87,4.87 10.87,10.87 0,6.01 -4.87,10.87 -10.87,10.87 z"
       style="fill:none;stroke:#000000;stroke-opacity:1;stroke-width:1.5;stroke-linecap:round;stroke-linejoin:round;stroke-miterlimit:10;stroke-dasharray:none"
       id="path3211" /></g></g><text
   transform="scale(1,-1)"
   id="text3213"
   x="692.90002"
   y="-241.02"><tspan
     style="font-size:9.96000004px;font-variant:normal;font-weight:900;writing-mode:lr-tb;fill:#ffffff;fill-opacity:1;fill-rule:nonzero;stroke:none;font-family:Arial Black;-inkscape-font-specification:Arial Heavy"
     x="692.90002"
     y="-241.02"
     id="tspan3215">B</tspan></text>

<path
   d="m 633.77,255.64 c -6,0 -10.87,-4.87 -10.87,-10.87 0,-6.01 4.87,-10.87 10.87,-10.87 6.01,0 10.87,4.86 10.87,10.87 0,6 -4.86,10.87 -10.87,10.87 z"
   style="fill:#0000ff;fill-opacity:1;fill-rule:evenodd;stroke:none"
   id="path3217" /><g
   id="g3219"><g
     id="g3221"
     clip-path="url(#clipPath3223)"><path
       d="m 633.77,255.64 c -6,0 -10.87,-4.87 -10.87,-10.87 0,-6.01 4.87,-10.87 10.87,-10.87 6.01,0 10.87,4.86 10.87,10.87 0,6 -4.86,10.87 -10.87,10.87 z"
       style="fill:none;stroke:#000000;stroke-opacity:1;stroke-width:1.5;stroke-linecap:round;stroke-linejoin:round;stroke-miterlimit:10;stroke-dasharray:none"
       id="path3227" /></g></g><text
   transform="scale(1,-1)"
   id="text3229"
   x="629.88"
   y="-241.38"><tspan
     style="font-size:9.96000004px;font-variant:normal;font-weight:900;writing-mode:lr-tb;fill:#ffffff;fill-opacity:1;fill-rule:nonzero;stroke:none;font-family:Arial Black;-inkscape-font-specification:Arial Heavy"
     x="629.88"
     y="-241.38"
     id="tspan3231">A</tspan></text>

<text
   transform="matrix(1,0,0,-1,523.68,238.18)"
   id="text3233"><tspan
     style="fill:#000000;fill-opacity:1;fill-rule:nonzero;stroke:none;font-family:Arial;font-variant:normal;font-weight:normal;font-size:15.96;writing-mode:lr;-inkscape-font-specification:Arial"
     x="0 8.88 13.32312 24.85248 33.73248 42.61248 47.0556 55.9356 64.8156 69.25872 77.24496 86.12496 95.00496 126.33024 135.21024 144.09024 152.1084 160.9884"
     y="0"
     sodipodi:role="line"
     id="tspan3235">3 Routen von      nach </tspan></text>

<path
   d="m 692.67,36.663 c -6,0 -10.87,-4.866 -10.87,-10.871 0,-6.004 4.87,-10.87 10.87,-10.87 6.01,0 10.87,4.866 10.87,10.87 0,6.005 -4.86,10.871 -10.87,10.871 z"
   style="fill:#ff0000;fill-opacity:1;fill-rule:evenodd;stroke:none"
   id="path3237" /><g
   id="g3239"><g
     id="g3241"
     clip-path="url(#clipPath3243)"><path
       d="m 692.67,36.663 c -6,0 -10.87,-4.866 -10.87,-10.871 0,-6.004 4.87,-10.87 10.87,-10.87 6.01,0 10.87,4.866 10.87,10.87 0,6.005 -4.86,10.871 -10.87,10.871 z"
       style="fill:none;stroke:#000000;stroke-opacity:1;stroke-width:1.5;stroke-linecap:round;stroke-linejoin:round;stroke-miterlimit:10;stroke-dasharray:none"
       id="path3247" /></g></g><a
   id="a3273"><text
     inkscape:transform-center-x="4.100354"
     y="-21.877647"
     x="688.82001"
     id="text3249"
     transform="scale(1,-1)"><tspan
       id="tspan3251"
       y="-21.877647"
       x="688.82001"
       style="font-size:9.96000004px;font-variant:normal;font-weight:900;writing-mode:lr-tb;fill:#ffffff;fill-opacity:1;fill-rule:nonzero;stroke:none;font-family:Arial Black;-inkscape-font-specification:Arial Heavy">D</tspan></text>
</a>
<path
   d="m 629.71,36.949 c -6,0 -10.87,-4.866 -10.87,-10.871 0,-6.004 4.87,-10.87 10.87,-10.87 6.01,0 10.87,4.866 10.87,10.87 0,6.005 -4.86,10.871 -10.87,10.871 z"
   style="fill:#ff0000;fill-opacity:1;fill-rule:evenodd;stroke:none"
   id="path3253" /><g
   id="g3255"><g
     id="g3257"
     clip-path="url(#clipPath3259)"><path
       d="m 629.71,36.949 c -6,0 -10.87,-4.866 -10.87,-10.871 0,-6.004 4.87,-10.87 10.87,-10.87 6.01,0 10.87,4.866 10.87,10.87 0,6.005 -4.86,10.871 -10.87,10.871 z"
       style="fill:none;stroke:#000000;stroke-opacity:1;stroke-width:1.5;stroke-linecap:round;stroke-linejoin:round;stroke-miterlimit:10;stroke-dasharray:none"
       id="path3263" /></g></g><text
   transform="scale(1,-1)"
   id="text3265"
   x="625.44"
   y="-22.496"><tspan
     style="font-size:9.96000004px;font-variant:normal;font-weight:900;writing-mode:lr-tb;fill:#ffffff;fill-opacity:1;fill-rule:nonzero;stroke:none;font-family:Arial Black;-inkscape-font-specification:Arial Heavy"
     x="625.44"
     y="-22.496"
     id="tspan3267">C</tspan></text>

<text
   transform="matrix(1,0,0,-1,519.58,19.416)"
   id="text3269"><tspan
     style="fill:#000000;fill-opacity:1;fill-rule:nonzero;stroke:none;font-family:Arial;font-variant:normal;font-weight:normal;font-size:15.96;writing-mode:lr;-inkscape-font-specification:Arial"
     x="0 8.88 13.32312 24.85248 33.73248 42.61248 47.0556 55.9356 64.8156 69.25872 77.24496 86.12496 95.00496 126.33024 135.21024 144.09024 152.1084 160.9884"
     y="0"
     sodipodi:role="line"
     id="tspan3271">2 Routen von      nach </tspan></text>

</g></svg>
